<svg xmlns="http://www.w3.org/2000/svg" width="149" height="50" viewBox="0 0 149 50" fill="none">
    <path
        d="M6.51748 0H142.939C146.267 0 148.97 2.6902 148.97 6.00047V43.9995C148.97 47.3098 146.267 50 142.939 50H6.51748C3.18955 50 0.484985 47.3098 0.484985 43.9995V6.00047C0.484985 2.6902 3.18955 0 6.51748 0Z"
        fill="#101828" />
    <path
        d="M24.9859 15.6938C24.7846 14.0824 25.5897 12.3738 26.4847 11.3222C27.4989 10.1326 29.2694 9.22293 30.6764 9.16268C30.8581 10.8421 30.1937 12.4924 29.2186 13.7034C28.2044 14.893 26.5746 15.8124 24.9859 15.6938Z"
        fill="white" />
    <path
        d="M36.6139 29.9396C36.5944 30.0387 36.0316 31.9883 34.6344 33.9574C33.4579 35.699 32.2405 37.3998 30.2903 37.429C28.4006 37.4679 27.7674 36.3191 25.5964 36.3191C23.4155 36.3191 22.7316 37.3998 20.9201 37.4679C19.0617 37.5379 17.6547 35.6096 16.4372 33.8894C14.016 30.3692 12.1342 23.9683 14.657 19.6181C15.8744 17.4799 18.1158 16.1076 20.4999 16.0687C22.3486 16.0396 24.078 17.3186 25.2153 17.3186C26.3311 17.3186 28.4612 15.7791 30.6518 16.0085C31.5683 16.0396 34.181 16.3797 35.8694 18.8192C35.7404 18.8989 32.7642 20.6386 32.7955 24.219C32.8346 28.4992 36.5651 29.9182 36.6139 29.9396Z"
        fill="white" />
    <path
        d="M49.3756 31.0616L50.6126 27.2129C50.9351 25.9922 51.1657 25.0631 51.3181 24.4333H51.3669C51.7285 25.8931 51.9805 26.8125 52.1115 27.2129L53.368 31.0616H49.3756ZM52.9049 22.4526H49.9502L45.1742 37.2234H47.6384L48.9535 32.8829H53.7803L55.1678 37.2234H57.7004L52.9049 22.4526Z"
        fill="white" />
    <path
        d="M66.8031 34.5752C66.3009 35.2556 65.6071 35.6055 64.7121 35.6055C63.9481 35.6055 63.3247 35.3372 62.8518 34.8066C62.3789 34.2759 62.1385 33.615 62.1385 32.8472V31.0648C62.1385 30.8762 62.1776 30.6352 62.2499 30.3475C62.3886 29.7158 62.7111 29.2162 63.184 28.8255C63.6667 28.4465 64.2001 28.2463 64.7825 28.2463C65.6462 28.2463 66.3399 28.5962 66.8539 29.2959C67.3248 29.9665 67.5574 30.816 67.5574 31.8559C67.5574 32.9852 67.3053 33.8871 66.8031 34.5752ZM68.6928 27.8459C67.8486 26.8565 66.8031 26.3569 65.5368 26.3569C63.9266 26.3569 62.7209 26.9964 61.9275 28.2657H61.8864L61.7555 26.5766H59.6646C59.7251 27.7759 59.7564 28.9363 59.7564 30.0773V41.5457H62.1385V35.9553C62.7619 36.9661 63.7761 37.4657 65.1948 37.4657C66.5022 37.4657 67.6062 37.0069 68.4915 36.0661C69.4881 35.0165 69.9805 33.5859 69.9805 31.7762C69.9805 30.1473 69.5565 28.845 68.6928 27.8459Z"
        fill="white" />
    <path
        d="M79.1032 34.5752C78.6107 35.2556 77.9072 35.6055 77.0122 35.6055C76.2481 35.6055 75.6248 35.3372 75.1518 34.8066C74.6789 34.2759 74.4386 33.615 74.4386 32.8472V31.0648C74.4386 30.8762 74.4796 30.6352 74.548 30.3475C74.6985 29.7158 75.0111 29.2162 75.4841 28.8255C75.9667 28.4465 76.4983 28.2463 77.0826 28.2463C77.9463 28.2463 78.64 28.5962 79.152 29.2959C79.6269 29.9665 79.8575 30.816 79.8575 31.8559C79.8575 32.9852 79.6151 33.8871 79.1032 34.5752ZM80.9928 27.8459C80.1486 26.8565 79.1032 26.3569 77.8349 26.3569C76.2286 26.3569 75.0209 26.9964 74.2275 28.2657H74.1865L74.0556 26.5766H71.9646C72.0252 27.7759 72.0545 28.9363 72.0545 30.0773V41.5457H74.4386V35.9553C75.062 36.9661 76.0781 37.4657 77.4949 37.4657C78.8002 37.4657 79.9063 37.0069 80.7915 36.0661C81.7862 35.0165 82.2806 33.5859 82.2806 31.7762C82.2806 30.1473 81.8585 28.845 80.9928 27.8459Z"
        fill="white" />
    <path
        d="M95.1385 30.5099C95.7522 31.1999 96.0531 32.0591 96.0531 33.0795C96.0531 34.3391 95.6115 35.3596 94.736 36.1488C93.7726 37.0099 92.4262 37.4395 90.6967 37.4395C89.0963 37.4395 87.8202 37.1285 86.8549 36.52L87.4079 34.549C88.4534 35.1594 89.6004 35.4684 90.8472 35.4684C91.7422 35.4684 92.4457 35.2682 92.9382 34.8698C93.4404 34.4693 93.6925 33.929 93.6925 33.2603C93.6925 32.6597 93.4795 32.1601 93.0789 31.75C92.6665 31.3398 91.9826 30.9589 91.027 30.609C88.4026 29.639 87.107 28.2298 87.107 26.3793C87.107 25.1703 87.5681 24.1789 88.4827 23.3995C89.3992 22.6297 90.6147 22.239 92.133 22.239C93.4794 22.239 94.607 22.4704 95.5001 22.9388L94.8982 24.8593C94.054 24.4102 93.1082 24.1789 92.0432 24.1789C91.2087 24.1789 90.5443 24.3889 90.0714 24.7893C89.6806 25.1586 89.4793 25.5999 89.4793 26.1305C89.4793 26.7098 89.7118 27.1996 90.1632 27.5708C90.5541 27.9207 91.2791 28.2998 92.3246 28.7099C93.6006 29.2192 94.5347 29.8198 95.1385 30.5099Z"
        fill="white" />
    <path
        d="M101.316 26.5698H103.94V28.3503H101.316V33.5208C101.316 34.8289 101.779 35.4898 102.703 35.4898C103.125 35.4898 103.477 35.449 103.758 35.379L103.829 37.179C103.356 37.35 102.744 37.4395 101.98 37.4395C101.034 37.4395 100.311 37.1498 99.7778 36.5784C99.2463 36.0088 98.9825 35.0486 98.9825 33.7093V28.3386H97.425V26.5698H98.9825V24.6202L101.316 23.9204V26.5698Z"
        fill="white" />
    <path
        d="M112.625 34.4034C112.101 35.2645 111.388 35.694 110.483 35.694C109.559 35.694 108.834 35.2722 108.322 34.4228C107.9 33.7328 107.689 32.8931 107.689 31.9134C107.689 30.9046 107.89 30.0532 108.322 29.3534C108.815 28.504 109.547 28.0841 110.503 28.0841C111.429 28.0841 112.142 28.504 112.645 29.3534C113.067 30.0532 113.278 30.8832 113.278 31.8628C113.278 32.8444 113.057 33.6822 112.625 34.4034ZM114.374 27.9247C113.419 26.8829 112.152 26.3639 110.583 26.3639C108.955 26.3639 107.658 26.8945 106.694 27.9442C105.737 28.9938 105.256 30.3447 105.256 31.9931C105.256 33.5734 105.717 34.8835 106.651 35.9137C107.587 36.9439 108.844 37.4629 110.413 37.4629C112.041 37.4629 113.348 36.9245 114.333 35.8437C115.267 34.7921 115.742 33.4528 115.742 31.8142C115.742 30.2242 115.289 28.9238 114.374 27.9247Z"
        fill="white" />
    <path
        d="M123.469 26.3926L123.477 28.6532C123.246 28.6124 122.994 28.593 122.724 28.593C121.89 28.593 121.237 28.904 120.784 29.5338C120.391 30.0819 120.19 30.7933 120.19 31.633V37.2234H117.808V29.9225C117.808 28.6921 117.788 27.5744 117.737 26.5734H119.809L119.899 28.6124H119.971C120.221 27.9127 120.612 27.3431 121.155 26.9233C121.689 26.5442 122.261 26.3537 122.875 26.3537C123.096 26.3537 123.297 26.3732 123.469 26.3926Z"
        fill="white" />
    <path
        d="M126.899 30.7736C126.969 30.0622 127.209 29.4421 127.602 28.9328C128.085 28.2933 128.718 27.9726 129.492 27.9726C130.336 27.9726 130.971 28.3031 131.381 28.9639C131.704 29.4732 131.864 30.0816 131.845 30.7833L126.899 30.7736ZM134.117 31.3917C134.117 30.0622 133.795 28.9523 133.162 28.0329C132.376 26.8938 131.202 26.3223 129.662 26.3223C128.095 26.3223 126.848 26.8938 125.923 28.0329C125.038 29.1019 124.597 30.4432 124.597 32.0429C124.597 33.6737 125.07 34.9838 126.013 35.9518C126.959 36.9237 128.265 37.4116 129.924 37.4116C131.301 37.4116 132.497 37.192 133.513 36.7527L133.142 35.1121C132.276 35.4426 131.311 35.6136 130.256 35.6136C129.3 35.6136 128.526 35.3629 127.925 34.873C127.26 34.323 126.918 33.5124 126.889 32.4628H134.025C134.086 32.1731 134.117 31.8135 134.117 31.3917Z"
        fill="white" />
    <path
        d="M48.7201 17.1193H50.2385C51.9972 17.1193 52.9684 16.0502 52.9684 14.1026C52.9684 12.1588 51.9914 11.0839 50.2385 11.0839H48.7201V17.1193ZM50.3596 9.97981C52.8238 9.97981 54.2836 11.4882 54.2836 14.0909C54.2836 16.6975 52.8297 18.2292 50.3596 18.2292H47.4343V9.97981H50.3596Z"
        fill="white" />
    <path
        d="M59.5598 15.2259C59.5598 13.8945 58.9286 13.1286 57.9574 13.1286C56.9862 13.1286 56.353 13.8945 56.353 15.2259C56.353 16.5633 56.9862 17.3291 57.9574 17.3291C58.9345 17.3291 59.5598 16.5633 59.5598 15.2259ZM55.0887 15.2259C55.0887 13.2938 56.2319 12.1101 57.9574 12.1101C59.681 12.1101 60.8241 13.2938 60.8241 15.2259C60.8241 17.1639 59.6868 18.3477 57.9574 18.3477C56.226 18.3477 55.0887 17.1639 55.0887 15.2259Z"
        fill="white" />
    <path
        d="M68.0869 18.2292H66.7932L65.523 13.7235H65.4937L64.2352 18.2292H62.9533L61.2922 12.2152H62.5351L63.6372 16.9483H63.6607L64.9192 12.2152H66.1151L67.3794 16.9483H67.4088L68.5109 12.2152H69.742L68.0869 18.2292Z"
        fill="white" />
    <path
        d="M70.4998 12.2174H71.684V13.2242H71.7113C72.0396 12.5381 72.6845 12.1143 73.6147 12.1143C74.9474 12.1143 75.7115 12.9599 75.7115 14.338V18.2314H74.4648V14.5791C74.4648 13.6752 74.0407 13.1776 73.177 13.1776C72.3034 13.1776 71.7406 13.7957 71.7406 14.7268V18.2314H70.4998V12.2174Z"
        fill="white" />
    <path d="M76.9543 9.97981H78.1952V18.2292H76.9543V9.97981Z" fill="white" />
    <path
        d="M83.6716 15.2259C83.6716 13.8945 83.0384 13.1286 82.0672 13.1286C81.096 13.1286 80.4648 13.8945 80.4648 15.2259C80.4648 16.5633 81.096 17.3291 82.0672 17.3291C83.0443 17.3291 83.6716 16.5633 83.6716 15.2259ZM79.2004 15.2259C79.2004 13.2938 80.3436 12.1101 82.0672 12.1101C83.7908 12.1101 84.9359 13.2938 84.9359 15.2259C84.9359 17.1639 83.7966 18.3477 82.0672 18.3477C80.3378 18.3477 79.2004 17.1639 79.2004 15.2259Z"
        fill="white" />
    <path
        d="M89.5575 15.9803V15.506L88.0704 15.5974C87.3278 15.6499 86.9076 15.9745 86.9076 16.4896C86.9076 17.0144 87.3454 17.3585 88.0117 17.3585C88.8794 17.3585 89.5575 16.7637 89.5575 15.9803ZM85.655 16.5226C85.655 15.471 86.466 14.8257 87.9023 14.746L89.5575 14.6488V14.1862C89.5575 13.5175 89.1041 13.1171 88.3459 13.1171C87.6268 13.1171 87.1793 13.4592 87.0698 13.9976H85.8974C85.9657 12.9111 86.8979 12.1102 88.3909 12.1102C89.8565 12.1102 90.7945 12.8819 90.7945 14.089V18.2332H89.6044V17.2438H89.5751C89.2253 17.9124 88.4612 18.3362 87.6678 18.3362C86.4836 18.3362 85.655 17.6034 85.655 16.5226Z"
        fill="white" />
    <path
        d="M92.9939 15.2261C92.9939 16.4954 93.6095 17.2904 94.5924 17.2904C95.546 17.2904 96.1831 16.4838 96.1831 15.2261C96.1831 13.9802 95.546 13.1618 94.5924 13.1618C93.6095 13.1618 92.9939 13.9627 92.9939 15.2261ZM91.7237 15.2261C91.7237 13.329 92.736 12.1219 94.2524 12.1219C95.12 12.1219 95.8098 12.5554 96.1499 13.2201H96.1714V9.98373H97.4201V18.2332H96.2124V17.2088H96.1889C95.8333 17.8949 95.1435 18.3362 94.2641 18.3362C92.7359 18.3362 91.7237 17.1233 91.7237 15.2261Z"
        fill="white" />
    <path
        d="M105.277 15.2259C105.277 13.8945 104.644 13.1286 103.672 13.1286C102.701 13.1286 102.07 13.8945 102.07 15.2259C102.07 16.5633 102.701 17.3291 103.672 17.3291C104.65 17.3291 105.277 16.5633 105.277 15.2259ZM100.806 15.2259C100.806 13.2938 101.949 12.1101 103.672 12.1101C105.398 12.1101 106.541 13.2938 106.541 15.2259C106.541 17.1639 105.404 18.3477 103.672 18.3477C101.943 18.3477 100.806 17.1639 100.806 15.2259Z"
        fill="white" />
    <path
        d="M107.497 12.2174H108.682V13.2242H108.711C109.037 12.5381 109.682 12.1143 110.612 12.1143C111.945 12.1143 112.711 12.9599 112.711 14.338V18.2314H111.462V14.5791C111.462 13.6752 111.038 13.1776 110.177 13.1776C109.303 13.1776 108.738 13.7957 108.738 14.7268V18.2314H107.497V12.2174Z"
        fill="white" />
    <path
        d="M117.901 10.7952V12.218H119.05V13.1958H117.901V16.5119C117.901 17.0309 118.132 17.2661 118.638 17.2661C118.763 17.2661 118.964 17.2544 119.046 17.2369V18.2146C118.908 18.2496 118.632 18.271 118.356 18.271C117.131 18.271 116.654 17.8084 116.654 16.6479V13.1958H115.775V12.218H116.654V10.7952H117.901Z"
        fill="white" />
    <path
        d="M120.114 9.97981H121.343V13.222H121.372C121.705 12.5184 122.365 12.1122 123.286 12.1122C124.612 12.1122 125.406 12.9927 125.406 14.3533V18.2292H124.159V14.5924C124.159 13.708 123.712 13.1754 122.838 13.1754C121.918 13.1754 121.355 13.8052 121.355 14.7537V18.2292H120.114V9.97981Z"
        fill="white" />
    <path
        d="M127.59 14.672H130.613C130.584 13.7506 129.997 13.1053 129.13 13.1053C128.262 13.1053 127.652 13.7623 127.59 14.672ZM131.785 16.4661C131.611 17.5643 130.566 18.3477 129.18 18.3477C127.406 18.3477 126.331 17.1522 126.331 15.2551C126.331 13.3677 127.422 12.1101 129.13 12.1101C130.808 12.1101 131.854 13.288 131.854 15.1113V15.535H127.584V15.6089C127.584 16.6546 128.215 17.3466 129.21 17.3466C129.917 17.3466 130.439 16.9928 130.607 16.4661H131.785Z"
        fill="white" />
</svg>