<svg xmlns="http://www.w3.org/2000/svg" width="221" height="41" viewBox="0 0 221 41" fill="none">
    <path
        d="M63.8451 14.3969L59.9978 23.7811H67.6525L63.8451 14.3969ZM71.9322 34.2232L69.6549 28.6086H58.0332L55.7181 34.2232H49.946L61.3327 7.91963H66.3176L77.7042 34.2232H71.9322Z"
        fill="#000000"></path>
    <path
        d="M84.024 27.9811C84.2989 29.9834 86.0263 30.6509 88.0686 30.6509C89.9933 30.6509 91.1309 29.7882 91.1309 28.6884C91.1309 27.9811 90.6607 27.2758 88.9711 26.9211L84.9664 26.0963C81.4339 25.3511 79.4315 23.3488 79.4315 20.5215C79.4315 16.7519 82.4938 14.0443 87.441 14.0443C92.0733 14.0443 95.293 16.4391 95.9605 19.8541L91.0133 20.8364C90.8161 19.2664 89.4434 18.1267 87.2836 18.1267C85.1238 18.1267 84.6138 19.1467 84.6138 20.0493C84.6138 20.6769 84.8488 21.3443 86.381 21.699L91.0532 22.7191C94.508 23.4642 96.1956 25.624 96.1956 28.2539C96.1956 32.5714 92.7009 34.8109 87.5984 34.8109C83.2809 34.8109 79.314 33.1234 78.804 29.0389L84.0261 27.979L84.024 27.9811Z"
        fill="#000000"></path>
    <path
        d="M116.452 24.4465C116.452 20.8343 114.097 18.5569 110.957 18.5569C108.17 18.5569 105.383 20.8343 105.383 24.4465C105.383 28.0587 108.17 30.2962 110.957 30.2962C114.097 30.2962 116.452 28.0587 116.452 24.4465ZM121.477 24.4465C121.477 30.611 116.845 34.8109 111.858 34.8109C109.188 34.8109 107.028 34.026 105.38 32.691V40.8957H100.198V14.632H105.38V16.202C107.028 14.8272 109.188 14.0422 111.858 14.0422C116.845 14.0422 121.477 18.282 121.477 24.4465Z"
        fill="#000000"></path>
    <path
        d="M125.677 14.632H130.859V34.2232H125.677V14.632ZM131.409 8.78229C131.409 10.5097 130.074 11.8047 128.269 11.8047C126.464 11.8047 125.129 10.5097 125.129 8.78229C125.129 7.05488 126.424 5.68009 128.269 5.68009C130.114 5.68009 131.409 7.13254 131.409 8.78229Z"
        fill="#000000"></path>
    <path
        d="M150.213 14.5144L149.938 19.5014H148.801C144.011 19.5014 141.811 22.4462 141.811 27.9034V34.2232H136.629V14.632H141.811V18.2043C143.381 15.927 145.659 14.357 148.839 14.357C149.349 14.357 149.741 14.357 150.213 14.5144Z"
        fill="#000000"></path>
    <path
        d="M167.918 24.4465C167.918 20.7965 165.093 18.5968 162.383 18.5968C159.673 18.5968 156.728 20.7965 156.728 24.4465C156.728 28.0965 159.556 30.2962 162.383 30.2962C165.21 30.2962 167.918 28.0965 167.918 24.4465ZM172.942 24.4465C172.942 30.611 168.113 34.7333 162.381 34.7333C156.649 34.7333 151.701 30.611 151.701 24.4465C151.701 18.282 156.531 14.1597 162.381 14.1597C168.23 14.1597 172.942 18.282 172.942 24.4465Z"
        fill="#000000"></path>
    <path
        d="M190.806 26.2537L195.596 27.471C194.496 31.9459 190.454 34.813 185.782 34.813C180.049 34.813 175.3 30.611 175.3 24.4486C175.3 18.2862 180.049 14.0443 185.782 14.0443C190.336 14.0443 194.301 16.8715 195.596 21.2687L190.609 22.6813C189.902 19.9338 188.057 18.7941 185.779 18.7941C182.52 18.7941 180.322 21.1092 180.322 24.4465C180.322 27.7838 182.52 30.0611 185.779 30.0611C188.057 30.0611 189.902 28.9613 190.804 26.2537"
        fill="#000000"></path>
    <path
        d="M213.3 34.2233L205.606 26.5664H204.703V34.2233H199.521V5.95505H204.703V21.4639H205.646L212.673 14.632H219.19L209.728 24.0162L220.21 34.2233H213.3Z"
        fill="#000000"></path>
    <path
        d="M28.7637 11.2548C28.5224 11.9684 27.9305 12.5184 27.2 12.7094C19.3669 14.7495 13.5655 21.8837 13.5655 30.3466C13.5655 31.9921 13.7838 33.5852 14.1952 35.1027C14.4071 35.8856 14.1784 36.721 13.6075 37.2961C12.1214 38.7926 10.1023 39.6091 8.04113 39.6091C6.71042 39.6091 5.36292 39.2691 4.13085 38.5575C0.380089 36.3935 -0.902348 31.5975 1.26163 27.8509L14.5478 4.83423C16.7118 1.08766 21.5078 -0.198982 25.2543 1.965C28.5454 3.86452 29.937 7.7895 28.7658 11.2548"
        fill="#000000"></path>
    <path
        d="M40.9521 30.3466C40.9521 32.8779 39.9258 35.1699 38.2697 36.828C36.6116 38.4862 34.3196 39.5104 31.7883 39.5104C26.7257 39.5104 22.6244 35.407 22.6244 30.3466C22.6244 27.8153 23.6508 25.5233 25.3068 23.8672C26.9649 22.2091 29.2591 21.1848 31.7883 21.1848C36.8487 21.1848 40.9521 25.2882 40.9521 30.3487"
        fill="#000000"></path>
</svg>