<svg xmlns="http://www.w3.org/2000/svg" width="149" height="50" viewBox="0 0 149 50" fill="none">
    <path
        d="M6.03186 0H142.453C145.78 0 148.485 2.6902 148.485 6.00047V43.9995C148.485 47.3098 145.78 50 142.453 50H6.03186C2.70434 50 0 47.3098 0 43.9995V6.00047C0 2.6902 2.70434 0 6.03186 0Z"
        fill="#101828" />
    <path
        d="M95.6669 32.2987L99.6375 30.6698C99.3235 30.0575 98.6734 29.6921 97.9843 29.7368C96.6446 29.7951 95.6061 30.9225 95.6648 32.2559C95.6653 32.2695 95.6661 32.2851 95.6669 32.2987ZM100.324 33.8848L101.844 34.8839C101.02 36.1065 99.6352 36.8393 98.1541 36.8354C95.7863 36.8704 93.8392 34.9869 93.8052 32.633C93.8044 32.565 93.805 32.4989 93.8071 32.4308C93.6129 30.2013 95.2726 28.2381 97.5142 28.0437C99.4034 27.8804 101.156 29.037 101.741 30.8311L101.94 31.3365L96.036 33.7682C96.4124 34.6098 97.2658 35.1385 98.1911 35.1035C99.0656 35.0899 99.8714 34.6293 100.324 33.8848ZM92.6483 23.6371V36.5633H90.7001V23.6371H92.6483ZM87.5117 32.4522C87.6235 31.0838 86.5975 29.8825 85.2202 29.7717C85.1944 29.7698 85.1685 29.7679 85.1427 29.7659C83.7249 29.8126 82.6138 30.9944 82.6607 32.4036C82.6613 32.4211 82.6619 32.4367 82.6629 32.4522C82.5972 33.8498 83.6827 35.0355 85.0874 35.1016C85.1057 35.1016 85.1241 35.1035 85.1427 35.1035C86.5071 35.0511 87.5703 33.9081 87.5175 32.5514C87.5162 32.5183 87.5142 32.4853 87.5117 32.4522ZM89.2313 28.2984V36.2037C89.2313 39.4498 87.2903 40.7852 85.0024 40.7852C83.2874 40.8008 81.7323 39.7861 81.0612 38.2155L82.7365 37.4827C83.0918 38.3983 83.9639 39.0144 84.9508 39.0455C86.4267 39.0455 87.3272 38.1417 87.3272 36.4623V35.8305H87.2533C86.6677 36.4798 85.8282 36.8471 84.9508 36.8354C82.505 36.8354 80.5225 34.8645 80.5225 32.4308C80.5225 29.9992 82.505 28.0262 84.9508 28.0262C85.8339 28.0068 86.6829 28.3644 87.2828 29.0098H87.3567V28.275H89.2313V28.2984ZM77.7402 32.4308C77.8691 31.0799 76.8718 29.8786 75.5125 29.7503C74.1531 29.6221 72.9465 30.6134 72.8173 31.9663C72.8026 32.1218 72.8026 32.2773 72.8173 32.4308C72.6883 33.7837 73.6857 34.983 75.045 35.1113C76.4043 35.2396 77.611 34.2483 77.7402 32.8954C77.7548 32.7419 77.7548 32.5863 77.7402 32.4308ZM79.6515 32.4308C79.6515 34.8353 77.6921 36.7849 75.275 36.7849C72.8579 36.7849 70.8985 34.8353 70.8985 32.4308C70.8985 30.0264 72.8579 28.0787 75.275 28.0787C77.6921 28.0787 79.6515 30.0264 79.6515 32.4308ZM67.9169 32.4308C68.0459 31.0799 67.0485 29.8786 65.6892 29.7503C64.3299 29.6221 63.1232 30.6134 62.9942 31.9663C62.9794 32.1218 62.9794 32.2773 62.9942 32.4308C62.865 33.7837 63.8624 34.983 65.2217 35.1113C66.5812 35.2396 67.7877 34.2483 67.9169 32.8954C67.9315 32.7419 67.9315 32.5863 67.9169 32.4308ZM69.8357 32.4308C69.9351 34.8372 68.0545 36.8685 65.6352 36.9676C63.2162 37.0668 61.1745 35.1949 61.0752 32.7885C61.0704 32.6699 61.0704 32.5494 61.0752 32.4308C60.976 30.0244 62.8564 27.9932 65.2757 27.896C67.6947 27.7969 69.7364 29.6668 69.8357 32.0732C69.8405 32.1917 69.8405 32.3123 69.8357 32.4308ZM53.5768 36.8354C49.7551 36.8491 46.6333 33.8032 46.5728 30.0011C46.6333 26.201 49.7551 23.1532 53.5768 23.1668C55.3445 23.1376 57.0497 23.8179 58.3076 25.0542L56.9717 26.3682C56.0656 25.4837 54.8452 24.9939 53.5768 25.0017C50.8173 25.0017 48.5802 27.2273 48.5802 29.9719C48.5802 32.7166 50.8173 34.9422 53.5768 34.9422C54.881 34.9947 56.1467 34.4971 57.0603 33.5699C57.661 32.9246 58.0229 32.0965 58.0862 31.2199H53.5768V29.4063H59.9239C59.993 29.7912 60.0253 30.1819 60.0198 30.5745C60.0837 32.1995 59.4971 33.7837 58.3889 34.9791C57.1232 36.2504 55.3734 36.9249 53.5768 36.8354ZM123.557 35.088C122.923 35.088 122.037 34.7653 122.037 33.9878C122.037 32.9887 123.137 32.6077 124.096 32.6077C124.715 32.5902 125.327 32.7399 125.867 33.0412C125.72 34.2016 124.734 35.0763 123.557 35.088ZM123.786 27.9971C122.339 27.9135 120.98 28.6929 120.325 29.9797L122.052 30.7125C122.402 30.0769 123.097 29.7076 123.823 29.7737C124.845 29.6726 125.757 30.4132 125.859 31.4298C125.859 31.4337 125.86 31.4376 125.86 31.4395V31.5717C125.241 31.2393 124.549 31.0644 123.845 31.0663C121.993 31.0663 120.103 32.079 120.103 34.0014C120.103 35.7353 121.616 36.851 123.329 36.851C124.321 36.9132 125.268 36.4273 125.794 35.5876H125.867V36.5866H127.757V31.6086C127.757 29.3111 126.03 28.034 123.801 28.034L123.786 27.9971ZM111.793 29.8553H109.04V25.4488H111.801C113.023 25.4488 114.015 26.4362 114.015 27.6511C114.015 28.8679 113.023 29.8553 111.801 29.8553H111.793ZM111.741 23.6216H107.092V36.5575H109.04V31.6611H111.749C114.026 31.7369 115.935 29.9642 116.013 27.6997C116.014 27.6802 116.014 27.6627 116.015 27.6452C115.967 25.3749 114.078 23.573 111.796 23.6197C111.778 23.6197 111.76 23.6216 111.741 23.6216ZM119.018 23.6216H117.085V36.5575H119.018V23.6216ZM134.665 28.275L132.451 33.8848H132.384L130.074 28.275H127.986L131.447 36.1162L129.469 40.4762H131.499L136.835 28.275H134.665Z"
        fill="white" />
    <path
        d="M24.3307 24.3324L11.7606 37.4316C12.272 39.2354 14.1556 40.285 15.9677 39.7758C16.2425 39.698 16.5063 39.5872 16.7531 39.4453L30.8966 31.433L24.3307 24.3324Z"
        fill="#EA4335" />
    <path
        d="M37.0428 22.1082L30.9265 18.623L24.0421 24.6332L30.9546 31.415L37.024 27.9687C38.651 27.1212 39.2793 25.1211 38.4275 23.5038C38.1135 22.9071 37.6239 22.4192 37.024 22.1082H37.0428Z"
        fill="#FBBC04" />
    <path
        d="M11.766 12.5755C11.69 12.8554 11.6523 13.1431 11.6537 13.4327V36.5754C11.6544 36.865 11.6922 37.1547 11.766 37.4326L24.7669 24.6697L11.766 12.5755Z"
        fill="#4285F4" />
    <path
        d="M24.4243 25.0024L30.9247 18.621L16.8 10.5718C16.2684 10.2608 15.6642 10.0975 15.0483 10.0956C13.5199 10.0936 12.1763 11.1024 11.7606 12.5642L24.4243 25.0024Z"
        fill="#34A853" />
    <path
        d="M49.8577 18.7383C47.8549 18.7383 46.5728 17.2843 46.5728 15.0159C46.5728 12.7864 47.85 11.3675 49.8577 11.3675C51.4081 11.3675 52.5859 12.283 52.8544 13.7019H51.915C51.6168 12.7378 50.8664 12.1897 49.8577 12.1897C48.3817 12.1897 47.4922 13.2471 47.4922 15.0121C47.4922 16.8062 48.3966 17.918 49.8577 17.918C51.1298 17.918 52.0045 17.0977 52.0045 15.9004V15.7721H49.982V14.9907H52.8989V15.6691C52.8989 17.5973 51.771 18.7383 49.8577 18.7383Z"
        fill="white" />
    <path
        d="M58.4839 18.6199H54.0411V11.4881H58.4839V12.287H54.9355V14.5768H58.2998V15.3679H54.9355V17.819H58.4839V18.6199Z"
        fill="white" />
    <path d="M61.4781 18.6199V12.287H59.217V11.4881H64.6337V12.287H62.3725V18.6199H61.4781Z"
        fill="white" />
    <path d="M67.6665 18.6199V11.4881H68.5611V18.6199H67.6665Z" fill="white" />
    <path
        d="M69.9498 18.6199V11.4881H70.8194L74.7452 17.0882H74.79V11.4881H75.6746V18.6199H74.805L70.879 13.0393H70.8344V18.6199H69.9498Z"
        fill="white" />
    <path
        d="M79.7978 15.0548C79.7978 16.81 80.7172 17.918 82.1832 17.918C83.6492 17.918 84.5684 16.81 84.5684 15.0548C84.5684 13.2957 83.6492 12.1897 82.1832 12.1897C80.7172 12.1897 79.7978 13.2957 79.7978 15.0548ZM85.4879 15.0548C85.4879 17.3193 84.2157 18.7383 82.1832 18.7383C80.1507 18.7383 78.8784 17.3193 78.8784 15.0548C78.8784 12.7922 80.1507 11.3675 82.1832 11.3675C84.2157 11.3675 85.4879 12.7922 85.4879 15.0548Z"
        fill="white" />
    <path
        d="M86.5978 18.6199V11.4881H87.4674L91.3933 17.0882H91.4381V11.4881H92.3227V18.6199H91.4529L87.527 13.0393H87.4823V18.6199H86.5978Z"
        fill="white" />
</svg>