<svg xmlns="http://www.w3.org/2000/svg" width="24" height="24" viewBox="0 0 24 24" fill="none">
  <g clip-path="url(#clip0_8364_4765)">
    <path fill-rule="evenodd" clip-rule="evenodd" d="M15.8641 0.944139C14.4634 0.866451 13.0972 1.47615 11.7674 2.80601L11.4359 2.47455L11.7674 2.80601C9.89961 4.67377 9.34661 7.1695 8.92747 9.65887C8.89094 9.87583 8.85532 10.0933 8.81976 10.3104C8.65463 11.3186 8.49079 12.319 8.24306 13.2226C7.94054 14.326 7.49835 15.3466 6.72258 16.1224C6.72065 16.1243 6.7187 16.1262 6.71674 16.1281C6.71486 16.13 6.71297 16.1318 6.71106 16.1335L5.29136 17.4593C5.10215 17.636 4.80553 17.6259 4.62883 17.4367C4.45214 17.2475 4.46228 16.9509 4.65149 16.7742L6.06515 15.454C6.6724 14.844 7.05646 14.005 7.33892 12.9747C7.57231 12.1234 7.72645 11.1835 7.89147 10.1771C7.92779 9.95563 7.96464 9.73091 8.00298 9.50321C8.42118 7.01944 9.00438 4.24317 11.1044 2.1431C12.5607 0.686802 14.1724 -0.0886344 15.9161 0.00807589C17.647 0.104082 19.4049 1.0546 21.1752 2.8248C22.9454 4.595 23.8959 6.35291 23.9919 8.0839C24.0887 9.82759 23.3132 11.4393 21.8569 12.8956C19.7569 14.9956 16.9806 15.5788 14.4968 15.997C14.2691 16.0354 14.0444 16.0722 13.823 16.1085C12.8166 16.2736 11.8766 16.4277 11.0253 16.6611C9.99507 16.9436 9.156 17.3276 8.54603 17.9349L3.02098 23.8512C2.93423 23.9441 2.81348 23.9977 2.6864 23.9999C2.55932 24.0021 2.43681 23.9526 2.34693 23.8627L0.137294 21.653C0.0474211 21.5632 -0.00210401 21.4407 6.85828e-05 21.3136C0.00224122 21.1865 0.0559253 21.0657 0.148818 20.979L1.56833 19.6534C1.75754 19.4767 2.05417 19.4868 2.23086 19.676C2.40755 19.8652 2.39741 20.1619 2.2082 20.3386L1.1432 21.3331L2.66686 22.8568L7.86649 17.289C7.87013 17.2851 7.87385 17.2812 7.87762 17.2774C8.65339 16.5017 9.67404 16.0595 10.7774 15.757C11.681 15.5092 12.6814 15.3454 13.6896 15.1802C13.9067 15.1447 14.1242 15.1091 14.3411 15.0725C16.8305 14.6534 19.3263 14.1004 21.194 12.2327C22.5239 10.9028 23.1336 9.53654 23.0559 8.13583C22.9775 6.72242 22.1941 5.16948 20.5123 3.48772C18.8305 1.80595 17.2775 1.02253 15.8641 0.944139Z" fill="black"/>
    <path fill-rule="evenodd" clip-rule="evenodd" d="M10.0394 10.5325C10.2288 10.4927 10.4232 10.5735 10.5287 10.7357C10.8754 11.2689 11.2834 11.7761 11.7537 12.2464L11.7537 12.2464C12.2239 12.7166 12.7311 13.1247 13.2643 13.4713C13.4265 13.5768 13.5072 13.7712 13.4675 13.9606C13.4277 14.15 13.2757 14.2955 13.0847 14.3269C11.76 14.5443 10.5003 14.7798 9.37924 15.2306C9.20498 15.3006 9.00572 15.2599 8.87291 15.1271C8.7401 14.9943 8.69938 14.795 8.76945 14.6208C9.22025 13.4996 9.45562 12.24 9.67316 10.9153C9.70453 10.7243 9.85003 10.5722 10.0394 10.5325ZM10.4086 12.1566C10.289 12.7911 10.1489 13.423 9.96489 14.0351C10.577 13.8511 11.2089 13.711 11.8433 13.5914C11.5842 13.3789 11.333 13.1515 11.0907 12.9093M10.4086 12.1566C10.6211 12.4157 10.8485 12.667 11.0907 12.9093L10.4086 12.1566Z" fill="black"/>
    <path fill-rule="evenodd" clip-rule="evenodd" d="M6.19754 15.5977C6.38059 15.4147 6.67739 15.4147 6.86045 15.5977L8.40264 17.1399C8.5857 17.323 8.5857 17.6198 8.40264 17.8028C8.21958 17.9859 7.92278 17.9859 7.73972 17.8028L6.19754 16.2607C6.01448 16.0776 6.01448 15.7808 6.19754 15.5977Z" fill="black"/>
    <path fill-rule="evenodd" clip-rule="evenodd" d="M14.3229 3.04779C14.5063 2.86509 14.8031 2.86565 14.9858 3.04906L14.9861 3.04934C15.1688 3.23275 15.1683 3.52955 14.9849 3.71225C14.8014 3.89496 14.5046 3.8944 14.3219 3.71099L14.3217 3.71071C14.139 3.5273 14.1395 3.2305 14.3229 3.04779Z" fill="black"/>
    <path fill-rule="evenodd" clip-rule="evenodd" d="M12.8308 4.54013C13.0138 4.35707 13.3106 4.35707 13.4937 4.54013L13.4939 4.54036C13.677 4.72342 13.677 5.02022 13.4939 5.20327C13.3109 5.38633 13.0141 5.38633 12.831 5.20327L12.8308 5.20304C12.6477 5.01998 12.6477 4.72318 12.8308 4.54013Z" fill="black"/>
    <path fill-rule="evenodd" clip-rule="evenodd" d="M11.3388 6.03233C11.5215 5.84899 11.8183 5.84854 12.0017 6.03132L12.0019 6.03155C12.1852 6.21433 12.1857 6.51113 12.0029 6.69447C11.8201 6.8778 11.5233 6.87826 11.34 6.69548L11.3398 6.69524C11.1564 6.51247 11.156 6.21567 11.3388 6.03233Z" fill="black"/>
    <path fill-rule="evenodd" clip-rule="evenodd" d="M17.3368 3.01983C17.5356 2.85407 17.8312 2.8809 17.997 3.07976L17.9972 3.08004C18.163 3.2789 18.1361 3.57449 17.9373 3.74024C17.7384 3.906 17.4428 3.87917 17.2771 3.68031L17.2768 3.68003C17.1111 3.48117 17.1379 3.18559 17.3368 3.01983Z" fill="black"/>
    <path fill-rule="evenodd" clip-rule="evenodd" d="M15.8149 4.53911C15.9985 4.35662 16.2953 4.35752 16.4778 4.54114L16.478 4.54138C16.6605 4.72499 16.6596 5.02179 16.476 5.20429C16.2924 5.38678 15.9956 5.38588 15.8131 5.20226L15.8129 5.20202C15.6304 5.01841 15.6313 4.72161 15.8149 4.53911Z" fill="black"/>
    <path fill-rule="evenodd" clip-rule="evenodd" d="M14.2938 6.06303C14.4596 5.86423 14.7552 5.83751 14.954 6.00334L14.9543 6.00357C15.1531 6.16941 15.1798 6.465 15.014 6.6638C14.8482 6.86259 14.5526 6.88931 14.3538 6.72348L14.3535 6.72325C14.1547 6.55741 14.128 6.26182 14.2938 6.06303Z" fill="black"/>
    <path fill-rule="evenodd" clip-rule="evenodd" d="M12.8619 7.49463C13.0606 7.32874 13.3562 7.35539 13.5221 7.55415L13.5224 7.55443C13.6882 7.75318 13.6616 8.04878 13.4628 8.21466C13.2641 8.38055 12.9685 8.3539 12.8026 8.15514L12.8024 8.15486C12.6365 7.95611 12.6631 7.66051 12.8619 7.49463Z" fill="black"/>
    <path fill-rule="evenodd" clip-rule="evenodd" d="M11.3393 9.01474C11.5223 8.83168 11.8191 8.83168 12.0022 9.01474L12.0024 9.01497C12.1855 9.19803 12.1855 9.49483 12.0024 9.67788C11.8193 9.86094 11.5226 9.86094 11.3395 9.67788L11.3393 9.67765C11.1562 9.49459 11.1562 9.19779 11.3393 9.01474Z" fill="black"/>
    <path fill-rule="evenodd" clip-rule="evenodd" d="M18.797 4.54013C18.98 4.35707 19.2768 4.35707 19.4599 4.54013L19.4601 4.54036C19.6432 4.72342 19.6432 5.02022 19.4601 5.20327C19.2771 5.38633 18.9803 5.38633 18.7972 5.20327L18.797 5.20304C18.6139 5.01998 18.6139 4.72318 18.797 4.54013Z" fill="black"/>
    <path fill-rule="evenodd" clip-rule="evenodd" d="M17.3049 6.03233C17.4877 5.84899 17.7845 5.84854 17.9679 6.03132L17.9681 6.03155C18.1514 6.21433 18.1519 6.51113 17.9691 6.69447C17.7863 6.8778 17.4895 6.87826 17.3062 6.69548L17.306 6.69524C17.1226 6.51247 17.1222 6.21567 17.3049 6.03233Z" fill="black"/>
    <path fill-rule="evenodd" clip-rule="evenodd" d="M15.8461 7.49372C16.0453 7.32844 16.3408 7.35598 16.5061 7.55523L16.5064 7.55551C16.6716 7.75477 16.6441 8.05028 16.4448 8.21557C16.2456 8.38085 15.9501 8.35331 15.7848 8.15406L15.7846 8.15378C15.6193 7.95453 15.6468 7.65901 15.8461 7.49372Z" fill="black"/>
    <path fill-rule="evenodd" clip-rule="evenodd" d="M14.2943 9.0454C14.4604 8.84685 14.756 8.82057 14.9546 8.9867L14.9548 8.98694C15.1534 9.15307 15.1797 9.4487 15.0135 9.64725C14.8474 9.84579 14.5518 9.87207 14.3532 9.70594L14.353 9.70571C14.1544 9.53957 14.1281 9.24394 14.2943 9.0454Z" fill="black"/>
    <path fill-rule="evenodd" clip-rule="evenodd" d="M12.8303 10.5069C13.013 10.3236 13.3098 10.3231 13.4932 10.5059L13.4934 10.5062C13.6768 10.6889 13.6772 10.9857 13.4944 11.1691C13.3117 11.3524 13.0149 11.3529 12.8315 11.1701L12.8313 11.1699C12.6479 10.9871 12.6475 10.6903 12.8303 10.5069Z" fill="black"/>
    <path fill-rule="evenodd" clip-rule="evenodd" d="M20.288 6.03233C20.4708 5.84899 20.7676 5.84854 20.9509 6.03132L20.9512 6.03155C21.1345 6.21433 21.135 6.51113 20.9522 6.69447C20.7694 6.8778 20.4726 6.87826 20.2893 6.69548L20.289 6.69524C20.1057 6.51247 20.1053 6.21567 20.288 6.03233Z" fill="black"/>
    <path fill-rule="evenodd" clip-rule="evenodd" d="M18.8281 7.49463C19.0268 7.32874 19.3224 7.35539 19.4883 7.55415L19.4885 7.55443C19.6544 7.75318 19.6278 8.04878 19.429 8.21466C19.2303 8.38055 18.9347 8.3539 18.7688 8.15514L18.7686 8.15486C18.6027 7.95611 18.6293 7.66051 18.8281 7.49463Z" fill="black"/>
    <path fill-rule="evenodd" clip-rule="evenodd" d="M17.3054 9.01474C17.4885 8.83168 17.7853 8.83168 17.9684 9.01474L17.9686 9.01497C18.1517 9.19803 18.1517 9.49483 17.9686 9.67788C17.7855 9.86094 17.4887 9.86094 17.3057 9.67788L17.3054 9.67765C17.1224 9.49459 17.1224 9.19779 17.3054 9.01474Z" fill="black"/>
    <path fill-rule="evenodd" clip-rule="evenodd" d="M15.8144 10.5059C15.9977 10.3231 16.2945 10.3236 16.4773 10.5069L16.4775 10.5072C16.6603 10.6905 16.6598 10.9873 16.4765 11.1701C16.2932 11.3529 15.9964 11.3524 15.8136 11.1691L15.8134 11.1688C15.6306 10.9855 15.631 10.6887 15.8144 10.5059Z" fill="black"/>
    <path fill-rule="evenodd" clip-rule="evenodd" d="M14.2943 12.0283C14.4604 11.8298 14.756 11.8035 14.9546 11.9696L14.9548 11.9698C15.1534 12.136 15.1797 12.4316 15.0135 12.6302C14.8474 12.8287 14.5518 12.855 14.3532 12.6889L14.353 12.6886C14.1544 12.5225 14.1281 12.2269 14.2943 12.0283Z" fill="black"/>
    <path fill-rule="evenodd" clip-rule="evenodd" d="M20.2885 9.01474C20.4716 8.83168 20.7684 8.83168 20.9515 9.01474L20.9517 9.01497C21.1347 9.19803 21.1347 9.49483 20.9517 9.67788C20.7686 9.86094 20.4718 9.86094 20.2888 9.67788L20.2885 9.67765C20.1055 9.49459 20.1055 9.19779 20.2885 9.01474Z" fill="black"/>
    <path fill-rule="evenodd" clip-rule="evenodd" d="M18.7965 10.5069C18.9792 10.3236 19.276 10.3231 19.4594 10.5059L19.4596 10.5062C19.6429 10.6889 19.6434 10.9857 19.4606 11.1691C19.2778 11.3524 18.981 11.3529 18.7977 11.1701L18.7975 11.1699C18.6141 10.9871 18.6137 10.6903 18.7965 10.5069Z" fill="black"/>
    <path fill-rule="evenodd" clip-rule="evenodd" d="M17.3054 11.9976C17.4885 11.8146 17.7853 11.8146 17.9684 11.9976L17.9686 11.9979C18.1517 12.1809 18.1517 12.4777 17.9686 12.6608C17.7855 12.8439 17.4887 12.8439 17.3057 12.6608L17.3054 12.6606C17.1224 12.4775 17.1224 12.1807 17.3054 11.9976Z" fill="black"/>
    <path fill-rule="evenodd" clip-rule="evenodd" d="M2.96082 18.5566C2.96082 18.2978 3.17068 18.0879 3.42957 18.0879H3.42994C3.68883 18.0879 3.89869 18.2978 3.89869 18.5566C3.89869 18.8155 3.68883 19.0254 3.42994 19.0254H3.42957C3.17068 19.0254 2.96082 18.8155 2.96082 18.5566Z" fill="black"/>
  </g>
  <defs>
    <clipPath id="clip0_8364_4765">
      <rect width="24" height="24" fill="white"/>
    </clipPath>
  </defs>
</svg>