<svg xmlns="http://www.w3.org/2000/svg" width="41" height="41" viewBox="0 0 41 41" fill="none">
    <path
        d="M20.45 3.83325C11.25 3.83325 3.78333 11.2999 3.78333 20.4999C3.78333 29.6999 11.25 37.1666 20.45 37.1666C29.65 37.1666 37.1167 29.6999 37.1167 20.4999C37.1167 11.2999 29.6667 3.83325 20.45 3.83325ZM25.45 24.2166L20.6167 26.9999C20.0167 27.3499 19.35 27.5166 18.7 27.5166C18.0333 27.5166 17.3833 27.3499 16.7833 26.9999C15.5833 26.2999 14.8667 25.0666 14.8667 23.6666V18.0833C14.8667 16.6999 15.5833 15.4499 16.7833 14.7499C17.9833 14.0499 19.4167 14.0499 20.6333 14.7499L25.4667 17.5333C26.6667 18.2333 27.3833 19.4666 27.3833 20.8666C27.3833 22.2666 26.6667 23.5166 25.45 24.2166Z"
        fill="#FCFCFC" />
</svg>