<svg xmlns="http://www.w3.org/2000/svg" width="22" height="24" viewBox="0 0 22 24" fill="none">
    <g clip-path="url(#clip0_8358_1121)">
        <path
            d="M15.701 8.64166C17.2467 9.74607 19.1404 10.3959 21.1856 10.3959V6.46237C20.7985 6.46253 20.4125 6.42214 20.0338 6.34188V9.43813C17.9887 9.43813 16.0953 8.78839 14.5492 7.68406V15.7113C14.5492 19.727 11.2922 22.9821 7.27473 22.9821C5.77572 22.9821 4.3824 22.5291 3.22502 21.7523C4.54601 23.1023 6.38822 23.9398 8.42624 23.9398C12.444 23.9398 15.7011 20.6847 15.7011 16.6688V8.64166H15.701ZM17.1219 4.67322C16.3319 3.81062 15.8132 2.69586 15.701 1.46342V0.95752H14.6095C14.8842 2.52389 15.8215 3.8621 17.1219 4.67322ZM5.76604 18.6708C5.32464 18.0925 5.08605 17.3849 5.08717 16.6573C5.08717 14.8207 6.57691 13.3316 8.4149 13.3316C8.75737 13.3314 9.09783 13.384 9.4243 13.4874V9.46593C9.04279 9.41371 8.65779 9.39145 8.27297 9.39964V12.5297C7.94633 12.4263 7.6057 12.3737 7.26306 12.374C5.42516 12.374 3.9355 13.863 3.9355 15.6998C3.9355 16.9986 4.68008 18.1231 5.76604 18.6708Z"
            fill="#FF004F" />
        <path
            d="M14.5492 7.68397C16.0954 8.78831 17.9887 9.43804 20.0338 9.43804V6.34179C18.8922 6.09873 17.8817 5.50254 17.1218 4.67322C15.8213 3.86202 14.8842 2.52381 14.6095 0.95752H11.7425V16.6687C11.7359 18.5003 10.2487 19.9833 8.41473 19.9833C7.33407 19.9833 6.3739 19.4685 5.76587 18.6708C4.68008 18.1231 3.93542 16.9985 3.93542 15.6999C3.93542 13.8632 5.42507 12.3741 7.26298 12.3741C7.61511 12.3741 7.95451 12.4289 8.27288 12.5298V9.39973C4.32596 9.48124 1.15175 12.7045 1.15175 16.6687C1.15175 18.6477 1.94218 20.4416 3.2251 21.7524C4.38248 22.5291 5.77572 22.9822 7.27481 22.9822C11.2923 22.9822 14.5493 19.7269 14.5493 15.7113L14.5492 7.68397Z"
            fill="black" />
        <path
            d="M20.0338 6.34179V5.50477C19.0044 5.50627 17.9953 5.21813 17.1219 4.6733C17.895 5.51927 18.913 6.10265 20.0338 6.34196M14.6094 0.957517C14.5832 0.807854 14.5631 0.657193 14.5491 0.505903V0H10.5905V15.7113C10.5842 17.5428 9.09699 19.0258 7.2629 19.0258C6.74295 19.0266 6.2301 18.905 5.76579 18.671C6.37382 19.4686 7.33399 19.9833 8.41465 19.9833C10.2486 19.9833 11.7359 18.5004 11.7424 16.6688V0.9576L14.6094 0.957517ZM8.27305 9.39972V8.5085C7.94225 8.46333 7.60876 8.44072 7.2749 8.4408C3.25697 8.4408 0 11.696 0 15.7113C0 18.2287 1.28003 20.4473 3.22519 21.7524C1.94226 20.4416 1.15183 18.6476 1.15183 16.6687C1.15183 12.7046 4.32596 9.48124 8.27305 9.39972Z"
            fill="#00F2EA" />
    </g>
    <defs>
        <clipPath id="clip0_8358_1121">
            <rect width="21.1862" height="24" fill="white" />
        </clipPath>
    </defs>
</svg>