<svg xmlns="http://www.w3.org/2000/svg" width="48" height="48" viewBox="0 0 48 48" fill="none">
    <g clip-path="url(#clip0_8417_2015)">
        <path
            d="M1.0243 23.7126C1.02318 27.7455 2.08518 31.6834 4.10455 35.1543L0.831177 47.0132L13.0622 43.8311C16.4451 45.6584 20.2354 46.6159 24.0872 46.6162H24.0973C36.8126 46.6162 47.1632 36.3496 47.1686 23.7306C47.171 17.6158 44.7733 11.8659 40.4169 7.53994C36.0613 3.21436 30.2685 0.830916 24.0964 0.828125C11.3796 0.828125 1.02974 11.0942 1.02449 23.7126"
            fill="url(#paint0_linear_8417_2015)" />
        <g filter="url(#filter0_d_8417_2015)">
            <path
                d="M0.200625 23.7053C0.199313 27.8833 1.29937 31.962 3.39075 35.5572L0 47.8413L12.6696 44.5451C16.1604 46.4337 20.0908 47.4294 24.0902 47.4309H24.1005C37.272 47.4309 47.9944 36.795 48 23.7243C48.0023 17.3898 45.5182 11.4331 41.0062 6.95219C36.4937 2.47181 30.4937 0.00260465 24.1005 0C10.9267 0 0.205875 10.6344 0.200625 23.7053ZM7.74581 34.938L7.27275 34.1929C5.28412 31.0554 4.2345 27.4298 4.236 23.7068C4.24012 12.8426 13.1509 4.00372 24.108 4.00372C29.4143 4.00595 34.401 6.05842 38.1517 9.78233C41.9023 13.5066 43.9661 18.4573 43.9648 23.7228C43.9599 34.587 35.049 43.427 24.1005 43.427H24.0926C20.5277 43.4251 17.0314 42.4752 13.9823 40.68L13.2566 40.253L5.73825 42.2089L7.74581 34.938Z"
                fill="url(#paint1_linear_8417_2015)" />
        </g>
        <path
            d="M18.1272 13.7954C17.6798 12.8088 17.209 12.7889 16.7835 12.7716C16.4352 12.7567 16.0369 12.7578 15.639 12.7578C15.2408 12.7578 14.5937 12.9065 14.0468 13.499C13.4993 14.0922 11.9565 15.5255 11.9565 18.4406C11.9565 21.3558 14.0965 24.1733 14.3948 24.569C14.6935 24.964 18.526 31.1377 24.5957 33.5128C29.6402 35.4866 30.6668 35.094 31.7616 34.995C32.8566 34.8964 35.2949 33.5621 35.7923 32.1785C36.2901 30.795 36.2901 29.6092 36.1409 29.3614C35.9916 29.1145 35.5934 28.9662 34.9962 28.67C34.399 28.3738 31.4629 26.9402 30.9156 26.7424C30.3681 26.5448 29.97 26.4462 29.5718 27.0395C29.1735 27.6319 28.03 28.9662 27.6814 29.3614C27.3332 29.7575 26.9847 29.8068 26.3877 29.5104C25.7901 29.2131 23.8669 28.5882 21.5852 26.5697C19.81 24.9991 18.6115 23.0596 18.2631 22.4663C17.9147 21.8739 18.2258 21.5528 18.5252 21.2576C18.7935 20.9921 19.1226 20.5656 19.4215 20.2198C19.7192 19.8737 19.8186 19.6269 20.0177 19.2317C20.217 18.8362 20.1173 18.4901 19.9682 18.1937C19.8186 17.8974 18.6582 14.9669 18.1272 13.7954Z"
            fill="white" />
    </g>
    <defs>
        <filter id="filter0_d_8417_2015" x="-48" y="-44" width="144" height="143.841"
            filterUnits="userSpaceOnUse" color-interpolation-filters="sRGB">
            <feFlood flood-opacity="0" result="BackgroundImageFix" />
            <feColorMatrix in="SourceAlpha" type="matrix"
                values="0 0 0 0 0 0 0 0 0 0 0 0 0 0 0 0 0 0 127 0" result="hardAlpha" />
            <feOffset dy="4" />
            <feGaussianBlur stdDeviation="24" />
            <feComposite in2="hardAlpha" operator="out" />
            <feColorMatrix type="matrix" values="0 0 0 0 0 0 0 0 0 0 0 0 0 0 0 0 0 0 0.08 0" />
            <feBlend mode="normal" in2="BackgroundImageFix" result="effect1_dropShadow_8417_2015" />
            <feBlend mode="normal" in="SourceGraphic" in2="effect1_dropShadow_8417_2015"
                result="shape" />
        </filter>
        <linearGradient id="paint0_linear_8417_2015" x1="2317.7" y1="4619.34" x2="2317.7"
            y2="0.828125" gradientUnits="userSpaceOnUse">
            <stop stop-color="#1FAF38" />
            <stop offset="1" stop-color="#60D669" />
        </linearGradient>
        <linearGradient id="paint1_linear_8417_2015" x1="2400" y1="4784.13" x2="2400" y2="0"
            gradientUnits="userSpaceOnUse">
            <stop stop-color="#F9F9F9" />
            <stop offset="1" stop-color="white" />
        </linearGradient>
        <clipPath id="clip0_8417_2015">
            <rect width="48" height="48" fill="white" />
        </clipPath>
    </defs>
</svg>